<svg xmlns="http://www.w3.org/2000/svg" width="455.0" height="440.0" viewBox="-70.0 0.0 455.0 440.0" style="overflow: visible;"><g><defs>
  <symbol id="marker-repeat" width="5" height="3" viewport="0 -2 5 3" overflow="visible">
    <line x1="0" y1="1.5" x2="5" y2="1.5"/>
    <line x1="0" y1="-1.5" x2="5" y2="-1.5"/>
  </symbol>
  <symbol id="marker-neighbor-left" width="5" height="3" viewport="0 -2 5 3" overflow="visible">
    <line x1="0" y1="1.5" x2="5" y2="-1.5"/>
  </symbol>
  <symbol id="marker-neighbor-right" width="5" height="3" viewport="0 -2 5 3" overflow="visible">
    <line x1="0" y1="-1.5" x2="5" y2="1.5"/>
  </symbol>
  <symbol id="marker-pass" width="5" height="3" viewport="0 -2 5 3" overflow="visible">
    <line x1="0" y1="-1.5" x2="5" y2="0"/>
    <line x1="0" y1="1.5" x2="5" y2="0"/>
  </symbol>
  <symbol id="marker-spread-left" width="5" height="3" viewport="0 -2 5 3" overflow="visible">
    <polyline points="1,-1.5 1,1.5 5,1.5"/>
  </symbol>
  <symbol id="marker-spread-right" width="5" height="3" viewport="0 -2 5 3" overflow="visible">
    <polyline points="0,1.5 4,1.5 4,-1.5"/>
  </symbol>
  <symbol id="marker-root-left" width="5" height="3" viewport="0 -2 5 3" overflow="visible">
    <polygon points="1,0 5,-1.5 5,1.5 0,0"/>
  </symbol>
  <symbol id="marker-root-right" width="5" height="3" viewport="0 -2 5 3" overflow="visible">
    <polygon points="0,1.5 0,-1.5 4,0 0,1.5"/>
  </symbol>
</defs>
<!--rect width="100%" height="100%" fill="white"/--><style>
:root {
  stroke: black;
}
text {
  font-size: 16px;
  fill: black;
  stroke: none;
}
.pv-op-marker {
  stroke-width: 1.5;
  fill: none;
}

.visible { display: inline; }
.hidden { display: none; }
.strong { font-weight: bold; }
.emph { font-style: italic; }

:root {
  --cat1: #4C72B0;
  --cat2: #DD8452;
  --cat3: #55A868;
  --cat4: #C44E52;
  --cat5: #8172B3;
  --cat6: #937860;
  --cat7: #DA8BC3;
  --cat8: #8C8C8C;
  --cat9: #CCB974;
  --cat10: #64B5CD;
  --cat1b: #aec7e8;
  --cat2b: #ffbb78;
  --cat3b: #98df8a;
  --cat4b: #ff9896;
  --cat5b: #c5b0d5;
  --cat6b: #c49c94;
  --cat7b: #f7b6d2;
  --cat8b: #c7c7c7;
  --cat9b: #dbdb8d;
  --cat10b: #9edae5;
  --cat1c: #001C7F;
  --cat2c: #B1400D;
  --cat3c: #12711C;
  --cat4c: #8C0800;
  --cat5c: #591E71;
  --cat6c: #592F0D;
  --cat7c: #A23582;
  --cat8c: #3C3C3C;
  --cat9c: #B8850A;
  --cat10c: #006374;
}

.cat1, .cat1 svg { fill: #4C72B0; stroke: #4C72B0; }
.cat2, .cat2 svg { fill: #DD8452; stroke: #DD8452; }
.cat3, .cat3 svg { fill: #55A868; stroke: #55A868; }
.cat4, .cat4 svg { fill: #C44E52; stroke: #C44E52; }
.cat5, .cat5 svg { fill: #8172B3; stroke: #8172B3; }
.cat6, .cat6 svg { fill: #937860; stroke: #937860; }
.cat7, .cat7 svg { fill: #DA8BC3; stroke: #DA8BC3; }
.cat8, .cat8 svg { fill: #8C8C8C; stroke: #8C8C8C; }
.cat9, .cat9 svg { fill: #CCB974; stroke: #CCB974; }
.cat10, .cat10 svg { fill: #64B5CD; stroke: #64B5CD; }
.cat1b, .cat1b svg { fill: #aec7e8; stroke: #aec7e8; }
.cat2b, .cat2b svg { fill: #ffbb78; stroke: #ffbb78; }
.cat3b, .cat3b svg { fill: #98df8a; stroke: #98df8a; }
.cat4b, .cat4b svg { fill: #ff9896; stroke: #ff9896; }
.cat5b, .cat5b svg { fill: #c5b0d5; stroke: #c5b0d5; }
.cat6b, .cat6b svg { fill: #c49c94; stroke: #c49c94; }
.cat7b, .cat7b svg { fill: #f7b6d2; stroke: #f7b6d2; }
.cat8b, .cat8b svg { fill: #c7c7c7; stroke: #c7c7c7; }
.cat9b, .cat9b svg { fill: #dbdb8d; stroke: #dbdb8d; }
.cat10b, .cat10b svg { fill: #9edae5; stroke: #9edae5; }
.cat1c, .cat1c svg { fill: #001C7F; stroke: #001C7F; }
.cat2c, .cat2c svg { fill: #B1400D; stroke: #B1400D; }
.cat3c, .cat3c svg { fill: #12711C; stroke: #12711C; }
.cat4c, .cat4c svg { fill: #8C0800; stroke: #8C0800; }
.cat5c, .cat5c svg { fill: #591E71; stroke: #591E71; }
.cat6c, .cat6c svg { fill: #592F0D; stroke: #592F0D; }
.cat7c, .cat7c svg { fill: #A23582; stroke: #A23582; }
.cat8c, .cat8c svg { fill: #3C3C3C; stroke: #3C3C3C; }
.cat9c, .cat9c svg { fill: #B8850A; stroke: #B8850A; }
.cat10c, .cat10c svg { fill: #006374; stroke: #006374; }



  .pv-edge.pv-selected, .pv-op-marker.pv-selected {
    stroke: rgb(30, 144, 255);
  }
  .vf-notehead.pv-selected {
    fill: rgb(30, 144, 255);
  }
  .vf-notehead.pv-parent {
    fill: rgb(135, 206, 250);
  }
  .pv-selectable {
    cursor: pointer;
  }
</style><g transform="translate(0 0) scale(0.9 0.9)"><svg stroke-width="0.3" stroke-dasharray="none" fill="black" stroke="black" font-family="Arial, sans-serif" font-size="10pt" font-weight="normal" font-style="normal" style="overflow: visible;"><g class="vf-stave" id="vf-auto4614" stroke-width="1" fill="#999999" stroke="#999999"><path fill="none" d="M0 40L350 40"/><path fill="none" d="M0 50L350 50"/><path fill="none" d="M0 60L350 60"/><path fill="none" d="M0 70L350 70"/><path fill="none" d="M0 80L350 80"/></g><g class="vf-stavebarline" id="vf-auto4615"><rect y="39.5" width="1" height="41" stroke="none"/></g><g class="vf-stavebarline" id="vf-auto4616"><rect x="350" y="39.5" width="1" height="41" stroke="none"/></g><g class="vf-clef" id="vf-auto4617"><path stroke="none" d="M20.191 53.208C20.135 52.731,20.191 52.703,20.444 52.45C24.824 48.378,28.138 43.24,28.138 37.034C28.138 33.524,27.155 30.042,25.498 27.627C24.881 26.729,23.842 25.606,23.392 25.606C22.831 25.606,21.567 26.644,20.781 27.543C17.776 30.856,16.794 35.911,16.794 40.123C16.794 42.454,17.102 45.093,17.383 46.75C17.468 47.227,17.496 47.311,17.018 47.733C11.178 52.534,5 58.319,5 66.49C5 73.51,9.802 80.193,19.714 80.193C20.641 80.193,21.708 80.109,22.522 79.94C22.943 79.856,23.027 79.828,23.112 80.305C23.589 83.029,24.207 86.539,24.207 88.449C24.207 94.43,20.163 95.16,17.776 95.16C15.586 95.16,14.547 94.514,14.547 93.98C14.547 93.7,14.912 93.587,15.839 93.278C17.102 92.913,18.535 91.846,18.535 89.488C18.535 87.269,17.131 85.36,14.66 85.36C11.964 85.36,10.335 87.522,10.335 90.021C10.335 92.632,11.908 96.62,18.029 96.62C20.725 96.62,25.976 95.384,25.976 88.533C25.976 86.202,25.246 82.383,24.824 79.856C24.74 79.379,24.768 79.435,25.33 79.182C29.43 77.554,32.125 74.128,32.125 69.551C32.125 64.384,28.334 59.807,22.382 59.807C21.343 59.807,21.343 59.807,21.202 59.077M24.01 31.867C25.33 31.867,26.425 32.962,26.425 35.181C26.425 39.674,22.578 43.324,19.405 46.104C19.124 46.357,18.956 46.3,18.872 45.767C18.703 44.728,18.619 43.352,18.619 42.06C18.619 35.742,21.539 31.867,24.01 31.867M19.602 59.414C19.714 60.172,19.714 60.144,18.984 60.369C15.446 61.576,13.115 64.777,13.115 68.231C13.115 71.853,15.025 74.437,17.776 75.391C18.113 75.504,18.591 75.616,18.872 75.616C19.18 75.616,19.349 75.419,19.349 75.167C19.349 74.886,19.04 74.774,18.759 74.661C17.046 73.931,15.839 72.19,15.839 70.337C15.839 68.006,17.411 66.293,19.882 65.591C20.528 65.423,20.612 65.479,20.697 65.928L22.718 77.975C22.803 78.424,22.747 78.424,22.157 78.536C21.511 78.649,20.697 78.733,19.882 78.733C12.806 78.733,8.229 74.802,8.229 69.186C8.229 66.799,8.65 63.598,11.992 59.807C14.435 57.111,16.288 55.595,18.17 54.079C18.591 53.742,18.675 53.798,18.759 54.219M22.382 65.844C22.297 65.339,22.353 65.226,22.831 65.283C26.116 65.563,28.812 68.315,28.812 71.853C28.812 74.409,27.267 76.458,25.021 77.61C24.544 77.834,24.459 77.834,24.375 77.357"/></g></svg></g><g transform="translate(0 80) scale(0.9 0.9)"><svg stroke-width="0.3" stroke-dasharray="none" fill="black" stroke="black" font-family="Arial, sans-serif" font-size="10pt" font-weight="normal" font-style="normal" style="overflow: visible;"><g class="vf-stave" id="vf-auto4628" stroke-width="1" fill="#999999" stroke="#999999"><path fill="none" d="M0 40L350 40"/><path fill="none" d="M0 50L350 50"/><path fill="none" d="M0 60L350 60"/><path fill="none" d="M0 70L350 70"/><path fill="none" d="M0 80L350 80"/></g><g class="vf-stavebarline" id="vf-auto4629"><rect y="39.5" width="1" height="41" stroke="none"/></g><g class="vf-stavebarline" id="vf-auto4630"><rect x="350" y="39.5" width="1" height="41" stroke="none"/></g><g class="vf-clef" id="vf-auto4631"><path stroke="none" d="M20.191 53.208C20.135 52.731,20.191 52.703,20.444 52.45C24.824 48.378,28.138 43.24,28.138 37.034C28.138 33.524,27.155 30.042,25.498 27.627C24.881 26.729,23.842 25.606,23.392 25.606C22.831 25.606,21.567 26.644,20.781 27.543C17.776 30.856,16.794 35.911,16.794 40.123C16.794 42.454,17.102 45.093,17.383 46.75C17.468 47.227,17.496 47.311,17.018 47.733C11.178 52.534,5 58.319,5 66.49C5 73.51,9.802 80.193,19.714 80.193C20.641 80.193,21.708 80.109,22.522 79.94C22.943 79.856,23.027 79.828,23.112 80.305C23.589 83.029,24.207 86.539,24.207 88.449C24.207 94.43,20.163 95.16,17.776 95.16C15.586 95.16,14.547 94.514,14.547 93.98C14.547 93.7,14.912 93.587,15.839 93.278C17.102 92.913,18.535 91.846,18.535 89.488C18.535 87.269,17.131 85.36,14.66 85.36C11.964 85.36,10.335 87.522,10.335 90.021C10.335 92.632,11.908 96.62,18.029 96.62C20.725 96.62,25.976 95.384,25.976 88.533C25.976 86.202,25.246 82.383,24.824 79.856C24.74 79.379,24.768 79.435,25.33 79.182C29.43 77.554,32.125 74.128,32.125 69.551C32.125 64.384,28.334 59.807,22.382 59.807C21.343 59.807,21.343 59.807,21.202 59.077M24.01 31.867C25.33 31.867,26.425 32.962,26.425 35.181C26.425 39.674,22.578 43.324,19.405 46.104C19.124 46.357,18.956 46.3,18.872 45.767C18.703 44.728,18.619 43.352,18.619 42.06C18.619 35.742,21.539 31.867,24.01 31.867M19.602 59.414C19.714 60.172,19.714 60.144,18.984 60.369C15.446 61.576,13.115 64.777,13.115 68.231C13.115 71.853,15.025 74.437,17.776 75.391C18.113 75.504,18.591 75.616,18.872 75.616C19.18 75.616,19.349 75.419,19.349 75.167C19.349 74.886,19.04 74.774,18.759 74.661C17.046 73.931,15.839 72.19,15.839 70.337C15.839 68.006,17.411 66.293,19.882 65.591C20.528 65.423,20.612 65.479,20.697 65.928L22.718 77.975C22.803 78.424,22.747 78.424,22.157 78.536C21.511 78.649,20.697 78.733,19.882 78.733C12.806 78.733,8.229 74.802,8.229 69.186C8.229 66.799,8.65 63.598,11.992 59.807C14.435 57.111,16.288 55.595,18.17 54.079C18.591 53.742,18.675 53.798,18.759 54.219M22.382 65.844C22.297 65.339,22.353 65.226,22.831 65.283C26.116 65.563,28.812 68.315,28.812 71.853C28.812 74.409,27.267 76.458,25.021 77.61C24.544 77.834,24.459 77.834,24.375 77.357"/></g></svg></g><g transform="translate(0 160) scale(0.9 0.9)"><svg stroke-width="0.3" stroke-dasharray="none" fill="black" stroke="black" font-family="Arial, sans-serif" font-size="10pt" font-weight="normal" font-style="normal" style="overflow: visible;"><g class="vf-stave" id="vf-auto4650" stroke-width="1" fill="#999999" stroke="#999999"><path fill="none" d="M0 40L350 40"/><path fill="none" d="M0 50L350 50"/><path fill="none" d="M0 60L350 60"/><path fill="none" d="M0 70L350 70"/><path fill="none" d="M0 80L350 80"/></g><g class="vf-stavebarline" id="vf-auto4651"><rect y="39.5" width="1" height="41" stroke="none"/></g><g class="vf-stavebarline" id="vf-auto4652"><rect x="350" y="39.5" width="1" height="41" stroke="none"/></g><g class="vf-clef" id="vf-auto4653"><path stroke="none" d="M20.191 53.208C20.135 52.731,20.191 52.703,20.444 52.45C24.824 48.378,28.138 43.24,28.138 37.034C28.138 33.524,27.155 30.042,25.498 27.627C24.881 26.729,23.842 25.606,23.392 25.606C22.831 25.606,21.567 26.644,20.781 27.543C17.776 30.856,16.794 35.911,16.794 40.123C16.794 42.454,17.102 45.093,17.383 46.75C17.468 47.227,17.496 47.311,17.018 47.733C11.178 52.534,5 58.319,5 66.49C5 73.51,9.802 80.193,19.714 80.193C20.641 80.193,21.708 80.109,22.522 79.94C22.943 79.856,23.027 79.828,23.112 80.305C23.589 83.029,24.207 86.539,24.207 88.449C24.207 94.43,20.163 95.16,17.776 95.16C15.586 95.16,14.547 94.514,14.547 93.98C14.547 93.7,14.912 93.587,15.839 93.278C17.102 92.913,18.535 91.846,18.535 89.488C18.535 87.269,17.131 85.36,14.66 85.36C11.964 85.36,10.335 87.522,10.335 90.021C10.335 92.632,11.908 96.62,18.029 96.62C20.725 96.62,25.976 95.384,25.976 88.533C25.976 86.202,25.246 82.383,24.824 79.856C24.74 79.379,24.768 79.435,25.33 79.182C29.43 77.554,32.125 74.128,32.125 69.551C32.125 64.384,28.334 59.807,22.382 59.807C21.343 59.807,21.343 59.807,21.202 59.077M24.01 31.867C25.33 31.867,26.425 32.962,26.425 35.181C26.425 39.674,22.578 43.324,19.405 46.104C19.124 46.357,18.956 46.3,18.872 45.767C18.703 44.728,18.619 43.352,18.619 42.06C18.619 35.742,21.539 31.867,24.01 31.867M19.602 59.414C19.714 60.172,19.714 60.144,18.984 60.369C15.446 61.576,13.115 64.777,13.115 68.231C13.115 71.853,15.025 74.437,17.776 75.391C18.113 75.504,18.591 75.616,18.872 75.616C19.18 75.616,19.349 75.419,19.349 75.167C19.349 74.886,19.04 74.774,18.759 74.661C17.046 73.931,15.839 72.19,15.839 70.337C15.839 68.006,17.411 66.293,19.882 65.591C20.528 65.423,20.612 65.479,20.697 65.928L22.718 77.975C22.803 78.424,22.747 78.424,22.157 78.536C21.511 78.649,20.697 78.733,19.882 78.733C12.806 78.733,8.229 74.802,8.229 69.186C8.229 66.799,8.65 63.598,11.992 59.807C14.435 57.111,16.288 55.595,18.17 54.079C18.591 53.742,18.675 53.798,18.759 54.219M22.382 65.844C22.297 65.339,22.353 65.226,22.831 65.283C26.116 65.563,28.812 68.315,28.812 71.853C28.812 74.409,27.267 76.458,25.021 77.61C24.544 77.834,24.459 77.834,24.375 77.357"/></g></svg></g><g transform="translate(0 240) scale(0.9 0.9)"><svg stroke-width="0.3" stroke-dasharray="none" fill="black" stroke="black" font-family="Arial, sans-serif" font-size="10pt" font-weight="normal" font-style="normal" style="overflow: visible;"><g class="vf-stave" id="vf-auto4664" stroke-width="1" fill="#999999" stroke="#999999"><path fill="none" d="M0 40L350 40"/><path fill="none" d="M0 50L350 50"/><path fill="none" d="M0 60L350 60"/><path fill="none" d="M0 70L350 70"/><path fill="none" d="M0 80L350 80"/></g><g class="vf-stavebarline" id="vf-auto4665"><rect y="39.5" width="1" height="41" stroke="none"/></g><g class="vf-stavebarline" id="vf-auto4666"><rect x="350" y="39.5" width="1" height="41" stroke="none"/></g><g class="vf-clef" id="vf-auto4667"><path stroke="none" d="M20.191 53.208C20.135 52.731,20.191 52.703,20.444 52.45C24.824 48.378,28.138 43.24,28.138 37.034C28.138 33.524,27.155 30.042,25.498 27.627C24.881 26.729,23.842 25.606,23.392 25.606C22.831 25.606,21.567 26.644,20.781 27.543C17.776 30.856,16.794 35.911,16.794 40.123C16.794 42.454,17.102 45.093,17.383 46.75C17.468 47.227,17.496 47.311,17.018 47.733C11.178 52.534,5 58.319,5 66.49C5 73.51,9.802 80.193,19.714 80.193C20.641 80.193,21.708 80.109,22.522 79.94C22.943 79.856,23.027 79.828,23.112 80.305C23.589 83.029,24.207 86.539,24.207 88.449C24.207 94.43,20.163 95.16,17.776 95.16C15.586 95.16,14.547 94.514,14.547 93.98C14.547 93.7,14.912 93.587,15.839 93.278C17.102 92.913,18.535 91.846,18.535 89.488C18.535 87.269,17.131 85.36,14.66 85.36C11.964 85.36,10.335 87.522,10.335 90.021C10.335 92.632,11.908 96.62,18.029 96.62C20.725 96.62,25.976 95.384,25.976 88.533C25.976 86.202,25.246 82.383,24.824 79.856C24.74 79.379,24.768 79.435,25.33 79.182C29.43 77.554,32.125 74.128,32.125 69.551C32.125 64.384,28.334 59.807,22.382 59.807C21.343 59.807,21.343 59.807,21.202 59.077M24.01 31.867C25.33 31.867,26.425 32.962,26.425 35.181C26.425 39.674,22.578 43.324,19.405 46.104C19.124 46.357,18.956 46.3,18.872 45.767C18.703 44.728,18.619 43.352,18.619 42.06C18.619 35.742,21.539 31.867,24.01 31.867M19.602 59.414C19.714 60.172,19.714 60.144,18.984 60.369C15.446 61.576,13.115 64.777,13.115 68.231C13.115 71.853,15.025 74.437,17.776 75.391C18.113 75.504,18.591 75.616,18.872 75.616C19.18 75.616,19.349 75.419,19.349 75.167C19.349 74.886,19.04 74.774,18.759 74.661C17.046 73.931,15.839 72.19,15.839 70.337C15.839 68.006,17.411 66.293,19.882 65.591C20.528 65.423,20.612 65.479,20.697 65.928L22.718 77.975C22.803 78.424,22.747 78.424,22.157 78.536C21.511 78.649,20.697 78.733,19.882 78.733C12.806 78.733,8.229 74.802,8.229 69.186C8.229 66.799,8.65 63.598,11.992 59.807C14.435 57.111,16.288 55.595,18.17 54.079C18.591 53.742,18.675 53.798,18.759 54.219M22.382 65.844C22.297 65.339,22.353 65.226,22.831 65.283C26.116 65.563,28.812 68.315,28.812 71.853C28.812 74.409,27.267 76.458,25.021 77.61C24.544 77.834,24.459 77.834,24.375 77.357"/></g></svg></g><line x1="174.72999572753906" y1="90.54859924316406" x2="279.72999572753906" y2="151.45140075683594" stroke="lightgray" stroke-width="5"/><line x1="174.72999572753906" y1="90.54859924316406" x2="69.72998809814453" y2="142.45140075683594" stroke="lightgray" stroke-width="5"/><g id="transition-0"/><g id="transition-1"><path fill="none" d="M 84.80029296875 152 C 150.6022811294677 152, 53.487402403247145 316.49998474121094, 119.28939056396484 316.49998474121094" class="pv-edge pv-regular"/><path fill="none" d="M 84.80029296875 161 C 148.87904033392152 161, 55.210643198793335 320.99998474121094, 119.28939056396484 320.99998474121094" class="pv-edge pv-regular"/></g><g id="transition-2"><path fill="none" d="M 156.79559326171875 316.49998474121094 C 191.44652382774512 316.49998474121094, 160.00876792030175 236.5, 194.65969848632812 236.5" class="pv-edge pv-regular"/><path fill="none" d="M 156.79559326171875 320.99998474121094 C 189.8627182229672 320.99998474121094, 161.59257352507967 245.5, 194.65969848632812 245.5" class="pv-edge pv-regular"/></g><g id="transition-3"><path fill="none" d="M 224.80029296875 236.5 C 258.22490716477387 236.5, 231.23508429030426 161, 264.6596984863281 161" class="pv-edge pv-regular"/><path fill="none" d="M 224.80029296875 245.5 C 261.3778390066274 245.5, 228.08215244845073 161, 264.6596984863281 161" class="pv-edge pv-regular"/></g><g id="transition-4"/><g id="transition-6"><path fill="none" d="M 84.80029296875 152 C 139.06131587268047 152, 140.39867558239766 236.5, 194.65969848632812 236.5" class="pv-edge pv-regular"/><path fill="none" d="M 84.80029296875 161 C 139.06131587268047 161, 140.39867558239766 245.5, 194.65969848632812 245.5" class="pv-edge pv-regular"/></g><g id="transition-7" class="pv-trans cat2"><title class="pv-label">main path</title><path fill="none" d="M 84.80029296875 161 C 155.21525022888184 161, 194.24474122619628 161, 264.6596984863281 161" class="pv-edge pv-regular cat1"><title class="pv-label"/></path><path fill="none" d="M 84.80029296875 152 C 155.3033514711738 152, 194.1566399839043 161, 264.6596984863281 161" stroke-dasharray="6,3" class="pv-edge pv-passing "><title class="pv-label">passing</title></path></g><g id="transition-8"/><g id="transition-9"/><g id="transition-10"/><g/><g transform="translate(0 0)"><g transform="translate(175 0) scale(0.9 0.9)" id="slice-6" class="pv-slice strong"><g transform="translate(-23.267 0)"><svg stroke-width="0.3" stroke-dasharray="none" fill="black" stroke="black" font-family="Arial, sans-serif" font-size="10pt" font-weight="normal" font-style="normal"><g class="vf-stavenote" id="vf-slice6-treble"><path stroke-width="1.4" fill="none" stroke="#444" d="M14 90L31.934 90"/><g class="vf-notehead pv-note cat2" id="vf-notes6.1" pointer-events="bounding-box"><title class="pv-label"/><path stroke="none" d="M20.931 95.054C24.525 95.054,28.934 91.741,28.934 88.315C28.934 86.237,27.305 84.946,25.003 84.946C20.566 84.946,17 88.231,17 91.685C17 93.791,18.741 95.054,20.931 95.054"/></g><g class="vf-notehead pv-note cat1" id="vf-notes6.0" pointer-events="bounding-box"><title class="pv-label"/><path stroke="none" d="M20.931 85.054C24.525 85.054,28.934 81.741,28.934 78.315C28.934 76.237,27.305 74.946,25.003 74.946C20.566 74.946,17 78.231,17 81.685C17 83.791,18.741 85.054,20.931 85.054"/></g></g></svg></g><text y="20" text-anchor="middle" dominant-baseline="middle" class="pv-label">tonic</text></g></g><g transform="translate(0 80)"><g transform="translate(70 0) scale(0.9 0.9)" id="slice-1"><g transform="translate(-23.267 0)"><svg stroke-width="0.3" stroke-dasharray="none" fill="black" stroke="black" font-family="Arial, sans-serif" font-size="10pt" font-weight="normal" font-style="normal"><g class="vf-stavenote" id="vf-slice1-treble"><path stroke-width="1.4" fill="none" stroke="#444" d="M14 90L31.934 90"/><g class="vf-notehead pv-note cat2b" id="vf-note0.1" pointer-events="bounding-box"><title class="pv-label"/><path stroke="none" d="M20.931 95.054C24.525 95.054,28.934 91.741,28.934 88.315C28.934 86.237,27.305 84.946,25.003 84.946C20.566 84.946,17 88.231,17 91.685C17 93.791,18.741 95.054,20.931 95.054"/></g><g class="vf-notehead pv-note cat1b" id="vf-note0.0" pointer-events="bounding-box"><title class="pv-label"/><path stroke="none" d="M20.931 85.054C24.525 85.054,28.934 81.741,28.934 78.315C28.934 76.237,27.305 74.946,25.003 74.946C20.566 74.946,17 78.231,17 81.685C17 83.791,18.741 85.054,20.931 85.054"/></g></g></svg></g></g><g transform="translate(280 0) scale(0.9 0.9)" id="slice-4"><g transform="translate(-23.267 0)"><svg stroke-width="0.3" stroke-dasharray="none" fill="black" stroke="black" font-family="Arial, sans-serif" font-size="10pt" font-weight="normal" font-style="normal"><g class="vf-stavenote" id="vf-slice4-treble"><path stroke-width="1.4" fill="none" stroke="#444" d="M14 90L31.934 90"/><g class="vf-notehead pv-note cat2c" id="vf-note3.0" pointer-events="bounding-box"><title class="pv-label"/><path stroke="none" d="M20.931 95.054C24.525 95.054,28.934 91.741,28.934 88.315C28.934 86.237,27.305 84.946,25.003 84.946C20.566 84.946,17 88.231,17 91.685C17 93.791,18.741 95.054,20.931 95.054"/></g></g></svg></g></g></g><g transform="translate(0 160)"><g transform="translate(210 0) scale(0.9 0.9)" id="slice-3"><g transform="translate(-23.267 0)"><svg stroke-width="0.3" stroke-dasharray="none" fill="black" stroke="black" font-family="Arial, sans-serif" font-size="10pt" font-weight="normal" font-style="normal"><g class="vf-stavenote" id="vf-slice3-treble"><path stroke-width="1.4" fill="none" stroke="#444" d="M14 90L31.934 90"/><g class="vf-notehead pv-note" id="vf-note2.1" pointer-events="bounding-box"><path stroke="none" d="M20.931 100.054C24.525 100.054,28.934 96.741,28.934 93.315C28.934 91.237,27.305 89.946,25.003 89.946C20.566 89.946,17 93.231,17 96.685C17 98.791,18.741 100.054,20.931 100.054"/></g><g class="vf-notehead pv-note cat3" id="vf-note2.0" pointer-events="bounding-box"><title class="pv-label">passing</title><path stroke="none" d="M20.931 90.054C24.525 90.054,28.934 86.741,28.934 83.315C28.934 81.237,27.305 79.946,25.003 79.946C20.566 79.946,17 83.231,17 86.685C17 88.791,18.741 90.054,20.931 90.054"/></g></g></svg></g></g></g><g transform="translate(0 240)"><g transform="translate(140 0) scale(0.9 0.9)" id="slice-2" class="pv-slice cat4 emph"><g transform="translate(-29.234 0)"><svg stroke-width="0.3" stroke-dasharray="none" fill="black" stroke="black" font-family="Arial, sans-serif" font-size="10pt" font-weight="normal" font-style="normal"><g class="vf-stavenote" id="vf-slice2-treble"><path stroke-width="1.4" fill="none" stroke="#444" d="M14 90L31.934 90"/><g class="vf-notehead pv-note" id="vf-note1.1" pointer-events="bounding-box"><path stroke="none" d="M20.931 95.054C24.525 95.054,28.934 91.741,28.934 88.315C28.934 86.237,27.305 84.946,25.003 84.946C20.566 84.946,17 88.231,17 91.685C17 93.791,18.741 95.054,20.931 95.054"/></g><g class="vf-notehead pv-note" id="vf-note1.0" pointer-events="bounding-box"><path stroke="none" d="M32.115 90.054C35.709 90.054,40.118 86.741,40.118 83.315C40.118 81.237,38.489 79.946,36.187 79.946C31.75 79.946,28.184 83.231,28.184 86.685C28.184 88.791,29.925 90.054,32.115 90.054"/></g></g></svg></g><text y="20" text-anchor="middle" dominant-baseline="middle" class="pv-label">sus</text></g></g><g transform="translate(0 320)"><g transform="scale(0.9 0.9)"><svg stroke-width="0.3" stroke-dasharray="none" fill="black" stroke="black" font-family="Arial, sans-serif" font-size="10pt" font-weight="normal" font-style="normal" style="overflow: visible;"><g class="vf-stave" id="vf-auto4678" stroke-width="1" fill="#999999" stroke="#999999"><path fill="none" d="M0 40L350 40"/><path fill="none" d="M0 50L350 50"/><path fill="none" d="M0 60L350 60"/><path fill="none" d="M0 70L350 70"/><path fill="none" d="M0 80L350 80"/></g><g class="vf-stavebarline" id="vf-auto4679"><rect y="39.5" width="1" height="41" stroke="none"/></g><g class="vf-stavebarline" id="vf-auto4680"><rect x="350" y="39.5" width="1" height="41" stroke="none"/></g><g class="vf-clef" id="vf-auto4681"><path stroke="none" d="M20.191 53.208C20.135 52.731,20.191 52.703,20.444 52.45C24.824 48.378,28.138 43.24,28.138 37.034C28.138 33.524,27.155 30.042,25.498 27.627C24.881 26.729,23.842 25.606,23.392 25.606C22.831 25.606,21.567 26.644,20.781 27.543C17.776 30.856,16.794 35.911,16.794 40.123C16.794 42.454,17.102 45.093,17.383 46.75C17.468 47.227,17.496 47.311,17.018 47.733C11.178 52.534,5 58.319,5 66.49C5 73.51,9.802 80.193,19.714 80.193C20.641 80.193,21.708 80.109,22.522 79.94C22.943 79.856,23.027 79.828,23.112 80.305C23.589 83.029,24.207 86.539,24.207 88.449C24.207 94.43,20.163 95.16,17.776 95.16C15.586 95.16,14.547 94.514,14.547 93.98C14.547 93.7,14.912 93.587,15.839 93.278C17.102 92.913,18.535 91.846,18.535 89.488C18.535 87.269,17.131 85.36,14.66 85.36C11.964 85.36,10.335 87.522,10.335 90.021C10.335 92.632,11.908 96.62,18.029 96.62C20.725 96.62,25.976 95.384,25.976 88.533C25.976 86.202,25.246 82.383,24.824 79.856C24.74 79.379,24.768 79.435,25.33 79.182C29.43 77.554,32.125 74.128,32.125 69.551C32.125 64.384,28.334 59.807,22.382 59.807C21.343 59.807,21.343 59.807,21.202 59.077M24.01 31.867C25.33 31.867,26.425 32.962,26.425 35.181C26.425 39.674,22.578 43.324,19.405 46.104C19.124 46.357,18.956 46.3,18.872 45.767C18.703 44.728,18.619 43.352,18.619 42.06C18.619 35.742,21.539 31.867,24.01 31.867M19.602 59.414C19.714 60.172,19.714 60.144,18.984 60.369C15.446 61.576,13.115 64.777,13.115 68.231C13.115 71.853,15.025 74.437,17.776 75.391C18.113 75.504,18.591 75.616,18.872 75.616C19.18 75.616,19.349 75.419,19.349 75.167C19.349 74.886,19.04 74.774,18.759 74.661C17.046 73.931,15.839 72.19,15.839 70.337C15.839 68.006,17.411 66.293,19.882 65.591C20.528 65.423,20.612 65.479,20.697 65.928L22.718 77.975C22.803 78.424,22.747 78.424,22.157 78.536C21.511 78.649,20.697 78.733,19.882 78.733C12.806 78.733,8.229 74.802,8.229 69.186C8.229 66.799,8.65 63.598,11.992 59.807C14.435 57.111,16.288 55.595,18.17 54.079C18.591 53.742,18.675 53.798,18.759 54.219M22.382 65.844C22.297 65.339,22.353 65.226,22.831 65.283C26.116 65.563,28.812 68.315,28.812 71.853C28.812 74.409,27.267 76.458,25.021 77.61C24.544 77.834,24.459 77.834,24.375 77.357"/></g></svg></g><g><g transform="translate(70 0) scale(0.9 0.9)" id="slice-1"><g transform="translate(-23.267 0)"><svg stroke-width="0.3" stroke-dasharray="none" fill="black" stroke="black" font-family="Arial, sans-serif" font-size="10pt" font-weight="normal" font-style="normal"><g class="vf-stavenote" id="vf-score-slice1-treble"><path stroke-width="1.4" fill="none" stroke="#444" d="M14 90L31.934 90"/><g class="vf-notehead" id="vf-note0.1" pointer-events="bounding-box"><path stroke="none" d="M20.931 95.054C24.525 95.054,28.934 91.741,28.934 88.315C28.934 86.237,27.305 84.946,25.003 84.946C20.566 84.946,17 88.231,17 91.685C17 93.791,18.741 95.054,20.931 95.054"/></g><g class="vf-notehead" id="vf-note0.0" pointer-events="bounding-box"><path stroke="none" d="M20.931 85.054C24.525 85.054,28.934 81.741,28.934 78.315C28.934 76.237,27.305 74.946,25.003 74.946C20.566 74.946,17 78.231,17 81.685C17 83.791,18.741 85.054,20.931 85.054"/></g></g></svg></g></g><g transform="translate(140 0) scale(0.9 0.9)" id="slice-2"><g transform="translate(-29.234 0)"><svg stroke-width="0.3" stroke-dasharray="none" fill="black" stroke="black" font-family="Arial, sans-serif" font-size="10pt" font-weight="normal" font-style="normal"><g class="vf-stavenote" id="vf-score-slice2-treble"><path stroke-width="1.4" fill="none" stroke="#444" d="M14 90L31.934 90"/><g class="vf-notehead" id="vf-note1.1" pointer-events="bounding-box"><path stroke="none" d="M20.931 95.054C24.525 95.054,28.934 91.741,28.934 88.315C28.934 86.237,27.305 84.946,25.003 84.946C20.566 84.946,17 88.231,17 91.685C17 93.791,18.741 95.054,20.931 95.054"/></g><g class="vf-notehead" id="vf-note1.0" pointer-events="bounding-box"><path stroke="none" d="M32.115 90.054C35.709 90.054,40.118 86.741,40.118 83.315C40.118 81.237,38.489 79.946,36.187 79.946C31.75 79.946,28.184 83.231,28.184 86.685C28.184 88.791,29.925 90.054,32.115 90.054"/></g></g></svg></g></g><g transform="translate(210 0) scale(0.9 0.9)" id="slice-3"><g transform="translate(-23.267 0)"><svg stroke-width="0.3" stroke-dasharray="none" fill="black" stroke="black" font-family="Arial, sans-serif" font-size="10pt" font-weight="normal" font-style="normal"><g class="vf-stavenote" id="vf-score-slice3-treble"><path stroke-width="1.4" fill="none" stroke="#444" d="M14 90L31.934 90"/><g class="vf-notehead" id="vf-note2.1" pointer-events="bounding-box"><path stroke="none" d="M20.931 100.054C24.525 100.054,28.934 96.741,28.934 93.315C28.934 91.237,27.305 89.946,25.003 89.946C20.566 89.946,17 93.231,17 96.685C17 98.791,18.741 100.054,20.931 100.054"/></g><g class="vf-notehead" id="vf-note2.0" pointer-events="bounding-box"><path stroke="none" d="M20.931 90.054C24.525 90.054,28.934 86.741,28.934 83.315C28.934 81.237,27.305 79.946,25.003 79.946C20.566 79.946,17 83.231,17 86.685C17 88.791,18.741 90.054,20.931 90.054"/></g></g></svg></g></g><g transform="translate(280 0) scale(0.9 0.9)" id="slice-4"><g transform="translate(-23.267 0)"><svg stroke-width="0.3" stroke-dasharray="none" fill="black" stroke="black" font-family="Arial, sans-serif" font-size="10pt" font-weight="normal" font-style="normal"><g class="vf-stavenote" id="vf-score-slice4-treble"><path stroke-width="1.4" fill="none" stroke="#444" d="M14 90L31.934 90"/><g class="vf-notehead" id="vf-note3.0" pointer-events="bounding-box"><path stroke="none" d="M20.931 95.054C24.525 95.054,28.934 91.741,28.934 88.315C28.934 86.237,27.305 84.946,25.003 84.946C20.566 84.946,17 88.231,17 91.685C17 93.791,18.741 95.054,20.931 95.054"/></g></g></svg></g></g></g><g id="score-transition-0" class="pv-score-transition"/><g id="score-transition-1" class="pv-score-transition"><line x1="84.80029296875" y1="81" x2="119.28939056396484" y2="81" class="pv-score-edge pv-regular"/></g><g id="score-transition-2" class="pv-score-transition"><line x1="156.79559326171875" y1="76.5" x2="194.65969848632812" y2="76.5" class="pv-score-edge pv-regular"/></g><g id="score-transition-3" class="pv-score-transition"/><g id="score-transition-4" class="pv-score-transition"/></g><text x="70" y="420" text-anchor="middle" dominant-baseline="middle">0.4</text><text x="140" y="420" text-anchor="middle" dominant-baseline="middle">1.1</text><text x="210" y="420" text-anchor="middle" dominant-baseline="middle">1.2</text><text x="280" y="420" text-anchor="middle" dominant-baseline="middle">1.3</text><g id="marker-note0.1" class="pv-op-marker">
    <use href="#marker-none" x="55.659690856933594" y="161"/>
    <use href="#marker-spread-right" x="78.80029296875" y="161"/>
  </g><g id="marker-note0.0" class="pv-op-marker">
    <use href="#marker-none" x="55.659690856933594" y="152"/>
    <use href="#marker-spread-right" x="78.80029296875" y="152"/>
  </g><g id="marker-note1.1" class="pv-op-marker">
    <use href="#marker-repeat" x="120.28939056396484" y="320.99998474121094"/>
    <use href="#marker-neighbor-right" x="150.79559326171875" y="320.99998474121094"/>
  </g><g id="marker-note1.0" class="pv-op-marker">
    <use href="#marker-neighbor-left" x="120.28939056396484" y="316.49998474121094"/>
    <use href="#marker-repeat" x="150.79559326171875" y="316.49998474121094"/>
  </g><g id="marker-note2.1" class="pv-op-marker">
    <use href="#marker-neighbor-left" x="195.65969848632812" y="245.5"/>
    <use href="#marker-neighbor-right" x="218.80029296875" y="245.5"/>
  </g><g id="marker-note2.0" class="pv-op-marker">
    <use href="#marker-pass" x="195.65969848632812" y="236.5"/>
    <use href="#marker-pass" x="218.80029296875" y="236.5"/>
  </g><g id="marker-note3.0" class="pv-op-marker">
    <use href="#marker-spread-left" x="265.6596984863281" y="161"/>
    <use href="#marker-none" x="288.80029296875" y="161"/>
  </g><g id="marker-notes6.1" class="pv-op-marker">
    <use href="#marker-root-left" x="160.65969848632812" y="81"/>
    <use href="#marker-root-right" x="183.80029296875" y="81"/>
  </g><g id="marker-notes6.0" class="pv-op-marker">
    <use href="#marker-root-left" x="160.65969848632812" y="72"/>
    <use href="#marker-root-right" x="183.80029296875" y="72"/>
  </g></g></svg>